<svg viewBox="0 0 512 512" xmlns="http://www.w3.org/2000/svg"><g id="Layer_2" data-name="Layer 2"><g id="Layer_2_copy_11" data-name="Layer 2 copy 11"><g id="_120" data-name="120"><circle id="background" cx="256" cy="256" fill="#ff6c52" r="256"/><circle cx="256" cy="256" fill="#ffda6b" r="165"/><g fill="#473535"><path d="m397.09 170.41c-37.84 12.66-86.86-6.25-105.73-14.73a14.15 14.15 0 0 0 -14.53 1.77c-72.97 57.36-173.78 36.55-173.78 36.55a165.06 165.06 0 0 1 294-23.58z"/><circle cx="205.6" cy="242.42" r="22.92" transform="matrix(.973 -.23 .23 .973 -50.2 53.72)"/><circle cx="306.4" cy="242.42" r="22.92" transform="matrix(.973 -.23 .23 .973 -47.5 76.88)"/><path d="m326.39 297.78a7.4 7.4 0 0 1 10.66 7.87 82.34 82.34 0 0 1 -162.1 0 7.4 7.4 0 0 1 10.66-7.87q70.39 36.06 140.78 0z"/></g></g></g></g></svg>