<svg viewBox="0 0 512 512" xmlns="http://www.w3.org/2000/svg"><g id="Layer_2" data-name="Layer 2"><g id="Layer_2_copy_11" data-name="Layer 2 copy 11"><g id="_1" data-name="1"><circle id="background" cx="256" cy="256" fill="#ff6c52" r="256"/><path d="m256 84a165 165 0 0 1 165 165v129.67a35.33 35.33 0 0 1 -35.33 35.33h-259.34a35.33 35.33 0 0 1 -35.33-35.33v-129.67a165 165 0 0 1 165-165z" fill="#473535"/><path d="m397.15 262.13a140.07 140.07 0 0 1 -19 70.73 141.73 141.73 0 0 1 -82.65 64.86 142.83 142.83 0 0 1 -79.17 0 141.73 141.73 0 0 1 -82.65-64.86c-24.37-40.51-25-96-2.32-137.49a11 11 0 0 1 9.94-5.65c37.11 1.08 95.48-7.84 135.78-31.18a10.24 10.24 0 0 1 13 2.22c10.14 12 28.48 28 41.8 35.72 14.07 9.09 34.51 18.39 53.61 24a11 11 0 0 1 7.64 7.94 141.47 141.47 0 0 1 4.02 33.71z" fill="#ffda6b"/><circle cx="199.75" cy="250.35" fill="#fff" r="41.53"/><circle cx="199.75" cy="250.35" fill="#473535" r="14.29"/><circle cx="312.25" cy="250.35" fill="#fff" r="41.53"/><g fill="#473535"><circle cx="312.25" cy="250.35" r="14.29"/><path d="m323.81 315.09a11 11 0 0 1 3 .42 10.8 10.8 0 0 1 7.39 13.35c-.36 1.24-9 30.44-36.34 43.74-18.58 9-40.67 8.51-65.66-1.6a10.79 10.79 0 0 1 8.09-20c19.08 7.72 35.28 8.46 48.13 2.2 18.48-9 25-30.09 25-30.3a10.8 10.8 0 0 1 10.39-7.81z"/></g></g></g></g></svg>